<svg width="64" height="64" viewBox="0 0 64 64" fill="none" xmlns="http://www.w3.org/2000/svg">
<rect width="64" height="64" rx="32" fill="#152259"/>
<g clip-path="url(#clip0_1344_1423)">
<path d="M43.5834 42.2447H19.4167V39.6202H20.625V30.4753C20.625 23.9299 25.4946 18.6245 31.5 18.6245C37.5054 18.6245 42.375 23.9299 42.375 30.4753V39.6202H43.5834V42.2447ZM23.0417 39.6202H39.9584V30.4753C39.9584 25.3799 36.1714 21.249 31.5 21.249C26.8286 21.249 23.0417 25.3799 23.0417 30.4753V39.6202ZM28.4792 43.5569H34.5209C34.5209 44.427 34.2026 45.2614 33.6361 45.8766C33.0696 46.4918 32.3012 46.8375 31.5 46.8375C30.6988 46.8375 29.9305 46.4918 29.364 45.8766C28.7975 45.2614 28.4792 44.427 28.4792 43.5569Z" fill="white"/>
</g>
<rect width="22" height="22" rx="11" fill="#ED1616"/>
<path d="M11.25 6.77273L11.1648 13.0455H10.1761L10.0909 6.77273H11.25ZM10.6705 15.5682C10.4602 15.5682 10.2798 15.4929 10.1293 15.3423C9.97869 15.1918 9.90341 15.0114 9.90341 14.8011C9.90341 14.5909 9.97869 14.4105 10.1293 14.2599C10.2798 14.1094 10.4602 14.0341 10.6705 14.0341C10.8807 14.0341 11.0611 14.1094 11.2116 14.2599C11.3622 14.4105 11.4375 14.5909 11.4375 14.8011C11.4375 14.9403 11.402 15.0682 11.331 15.1847C11.2628 15.3011 11.1705 15.3949 11.054 15.4659C10.9403 15.5341 10.8125 15.5682 10.6705 15.5682Z" fill="white"/>
<defs>
<clipPath id="clip0_1344_1423">
<rect width="29" height="31.4935" fill="white" transform="translate(17 16)"/>
</clipPath>
</defs>
</svg>
