<svg width="64" height="64" viewBox="0 0 64 64" fill="none" xmlns="http://www.w3.org/2000/svg">
<rect width="64" height="64" rx="32" fill="#152259"/>
<g clip-path="url(#clip0_1315_846)">
<path d="M44.0834 42.4978H19.9167V39.8734H21.125V30.7284C21.125 24.183 25.9946 18.8777 32 18.8777C38.0054 18.8777 42.875 24.183 42.875 30.7284V39.8734H44.0834V42.4978ZM23.5417 39.8734H40.4584V30.7284C40.4584 25.633 36.6714 21.5021 32 21.5021C27.3286 21.5021 23.5417 25.633 23.5417 30.7284V39.8734ZM28.9792 43.8101H35.0209C35.0209 44.6801 34.7026 45.5146 34.1361 46.1298C33.5696 46.745 32.8012 47.0906 32 47.0906C31.1988 47.0906 30.4305 46.745 29.864 46.1298C29.2975 45.5146 28.9792 44.6801 28.9792 43.8101Z" fill="white"/>
</g>
<defs>
<clipPath id="clip0_1315_846">
<rect width="29" height="31.4935" fill="white" transform="translate(17.5 16.2532)"/>
</clipPath>
</defs>
</svg>
