<svg width="72" height="72" viewBox="0 0 72 72" fill="none" xmlns="http://www.w3.org/2000/svg">
<ellipse cx="36" cy="39.216" rx="32.7273" ry="32.68" fill="white"/>
<path d="M12.0877 61.8398C14.0086 56.969 17.3476 52.785 21.6737 49.8281C25.9998 46.8712 31.1142 45.2773 36.3566 45.252C41.5173 45.238 46.5545 46.8271 50.7704 49.7992C54.9862 52.7713 58.1719 56.9792 59.8861 61.8398C59.8861 61.8398 54.1314 72.0771 36.3566 71.9092C31.8018 72.2711 27.226 71.5467 23.0065 69.796C18.787 68.0453 15.0446 65.3183 12.0877 61.8398Z" fill="#152259"/>
<path d="M35.9929 17.9706C38.841 17.9706 41.625 18.814 43.9931 20.394C46.3612 21.974 48.2069 24.2197 49.2968 26.8471C50.3867 29.4746 50.6718 32.3658 50.1162 35.1551C49.5606 37.9444 48.1891 40.5065 46.1752 42.5174C44.1614 44.5284 41.5955 45.8979 38.8022 46.4527C36.0089 47.0075 33.1135 46.7228 30.4823 45.6345C27.851 44.5461 25.602 42.7031 24.0197 40.3384C22.4375 37.9738 21.5929 35.1938 21.5929 32.3498C21.5929 30.4615 21.9654 28.5917 22.6891 26.8471C23.4127 25.1026 24.4734 23.5174 25.8106 22.1822C27.1477 20.847 28.7352 19.7878 30.4823 19.0652C32.2294 18.3426 34.1019 17.9706 35.9929 17.9706Z" fill="#152259"/>
</svg>
